<?xml version="1.0" encoding="utf-8"?>
<!-- Generator: Adobe Illustrator 23.0.1, SVG Export Plug-In . SVG Version: 6.00 Build 0)  -->
<svg version="1.1" id="Layer_1" xmlns="http://www.w3.org/2000/svg" xmlns:xlink="http://www.w3.org/1999/xlink" x="0px" y="0px"
	 viewBox="0 0 1980 1126" style="enable-background:new 0 0 1980 1126;" xml:space="preserve">
<style type="text/css">
	.st0{fill:#ECEFF2;}
	.st1{fill:#D8DEE8;}
	.st2{opacity:0.15;fill:url(#SVGID_1_);}
	.st3{opacity:0.47;fill:url(#SVGID_2_);}
	.st4{opacity:0.47;fill:url(#SVGID_3_);}
	.st5{opacity:0.15;fill:url(#SVGID_4_);}
	.st6{opacity:0.5;fill:url(#SVGID_5_);}
	.st7{opacity:0.47;fill:url(#SVGID_6_);}
	.st8{opacity:0.15;fill:url(#SVGID_7_);}
	.st9{opacity:0.47;fill:url(#SVGID_8_);}
	.st10{opacity:0.5;fill:url(#SVGID_9_);}
	.st11{opacity:0.5;fill:url(#SVGID_10_);}
	.st12{fill:#FFFFFF;}
	.st13{opacity:0.5;fill:url(#SVGID_11_);}
	.st14{opacity:0.15;fill:url(#SVGID_12_);}
	.st15{opacity:0.15;fill:url(#SVGID_13_);}
	.st16{opacity:0.15;fill:url(#SVGID_14_);}
	.st17{fill:url(#SVGID_15_);}
	.st18{fill:url(#SVGID_16_);}
	.st19{fill:url(#SVGID_17_);}
	.st20{fill:url(#SVGID_18_);}
	.st21{fill:#BFC8D5;}
	.st22{fill:#EFF2F6;}
	.st23{opacity:0.48;fill:#FFFFFF;}
	.st24{opacity:0.47;fill:#D8DEE8;}
	.st25{clip-path:url(#SVGID_20_);}
	.st26{fill:url(#SVGID_21_);}
	.st27{fill:url(#SVGID_22_);}
	.st28{fill:url(#SVGID_23_);}
	.st29{fill:url(#SVGID_24_);}
	.st30{fill:url(#SVGID_25_);}
	.st31{fill:url(#SVGID_26_);}
	.st32{opacity:0.3;fill:url(#SVGID_27_);}
	.st33{fill:url(#SVGID_28_);}
	.st34{opacity:0.75;fill:#F4F7FA;}
	.st35{fill:url(#SVGID_29_);}
	.st36{fill:url(#SVGID_30_);}
	.st37{opacity:0.3;fill:url(#SVGID_31_);}
	.st38{fill:url(#SVGID_32_);}
	.st39{opacity:0.3;fill:url(#SVGID_33_);}
	.st40{fill:url(#SVGID_34_);}
	.st41{fill:url(#SVGID_35_);}
	.st42{fill:url(#SVGID_36_);}
	.st43{opacity:0.5;fill:#F4F7FA;}
	.st44{fill:url(#SVGID_37_);}
	.st45{fill:url(#SVGID_38_);}
	.st46{fill:url(#SVGID_39_);}
	.st47{opacity:0.3;fill:url(#SVGID_40_);}
	.st48{opacity:0.44;fill:#F4F7FA;}
	.st49{opacity:0.7;fill:url(#SVGID_41_);}
	.st50{opacity:0.35;fill:#FFFFFF;}
	.st51{opacity:0.7;fill:#FFFFFF;}
	.st52{opacity:0.7;}
	.st53{fill:url(#SVGID_42_);}
	.st54{clip-path:url(#SVGID_44_);}
	.st55{fill:url(#SVGID_45_);}
	.st56{fill:url(#SVGID_46_);}
	.st57{opacity:0.3;}
	.st58{fill:url(#SVGID_47_);}
	.st59{fill:url(#SVGID_48_);}
	.st60{fill:url(#SVGID_49_);}
	.st61{fill:url(#SVGID_50_);}
	.st62{fill:url(#SVGID_51_);}
	.st63{fill:url(#SVGID_52_);}
	.st64{fill:url(#SVGID_53_);}
	.st65{fill:url(#SVGID_54_);}
	.st66{fill:url(#SVGID_55_);}
	.st67{fill:url(#SVGID_56_);}
	.st68{opacity:0.6;}
	.st69{fill:url(#SVGID_57_);}
	.st70{fill:url(#SVGID_58_);}
	.st71{fill:url(#SVGID_59_);}
	.st72{fill:url(#SVGID_60_);}
	.st73{fill:url(#SVGID_61_);}
	.st74{fill:url(#SVGID_62_);}
	.st75{fill:url(#SVGID_63_);}
	.st76{fill:url(#SVGID_64_);}
	.st77{fill:url(#SVGID_65_);}
	.st78{fill:url(#SVGID_66_);}
	.st79{fill:url(#SVGID_67_);}
	.st80{fill:url(#SVGID_68_);}
	.st81{fill:url(#SVGID_69_);}
	.st82{fill:url(#SVGID_70_);}
	.st83{fill:url(#SVGID_71_);}
	.st84{fill:url(#SVGID_72_);}
	.st85{fill:url(#SVGID_73_);}
	.st86{fill:url(#SVGID_74_);}
	.st87{fill:#26274F;}
	.st88{fill:url(#SVGID_75_);}
	.st89{fill:url(#SVGID_76_);}
	.st90{fill:url(#SVGID_77_);}
	.st91{fill:url(#SVGID_78_);}
	.st92{fill:url(#SVGID_79_);}
	.st93{opacity:0.3;fill:url(#SVGID_80_);}
	.st94{fill:url(#SVGID_81_);}
	.st95{fill:url(#SVGID_82_);}
	.st96{fill:url(#SVGID_83_);}
	.st97{fill:url(#SVGID_84_);}
	.st98{fill:url(#SVGID_85_);}
	.st99{fill:url(#SVGID_86_);}
	.st100{opacity:0.3;fill:url(#SVGID_87_);}
	.st101{fill:url(#SVGID_88_);}
	.st102{fill:url(#SVGID_89_);}
	.st103{opacity:0.3;fill:url(#SVGID_90_);}
	.st104{fill:url(#SVGID_91_);}
	.st105{fill:url(#SVGID_92_);}
	.st106{fill:url(#SVGID_93_);}
	.st107{fill:url(#SVGID_94_);}
	.st108{fill:url(#SVGID_95_);}
	.st109{fill:url(#SVGID_96_);}
	.st110{fill:url(#SVGID_97_);}
	.st111{fill:url(#SVGID_98_);}
	.st112{fill:url(#SVGID_99_);}
	.st113{fill:url(#SVGID_100_);}
</style>
<g>
	<path class="st0" d="M768.56,739.09c-458.6,59.33-687.91,89-687.48,126.5c0.65,58.12,450.45,171.69,692.28,102.03
		c14.54-4.19,104.45-30.97,118.95-5.78c13.43,23.33-55.16,65.05-46.75,99c14.69,59.26,255.6,62.43,487.05,25.41
		c202.11-32.32,526.91-116.06,522.18-201.41c-1.79-32.27-50.35-53.81-85.25-68.75C1406.45,660.7,870.65,725.88,768.56,739.09z"/>
	<path class="st1" d="M381.64,858.02c-45.1,6.71-107.16,15.62-107.24,28.41c-0.15,23.59,210.65,49.63,401.45,52.24
		c141.24,1.94,245.14-9.32,306.13-15.58c508.38-52.19,790.34-40.01,790.99-65.08c0.79-30.72-422.38-63.29-421.61-71.49
		c0.44-4.7,305.1,29.66,307.05,16.5c1.38-9.34-148.05-53.11-322.63-70.57C1054.85,704.36,970,770.51,381.64,858.02z"/>
	<path class="st1" d="M1089.01,1020.37c-93.37,14.95-145.17,23.24-144.82,32.08c0.37,9.13,56.64,25.68,107.24,8.25
		c29.94-10.31,36.67-25.21,71.49-32.08c26.05-5.14,32.21,1.25,63.24-0.92c47.42-3.31,90-22.18,88.91-27.5
		C1273.14,990.89,1135,1013.01,1089.01,1020.37z"/>
	<g>
		<linearGradient id="SVGID_1_" gradientUnits="userSpaceOnUse" x1="269.2787" y1="131.53" x2="528.4424" y2="131.53">
			<stop  offset="0" style="stop-color:#9681BC"/>
			<stop  offset="0.9964" style="stop-color:#6166AE"/>
		</linearGradient>
		<polygon class="st2" points="465.73,14.15 336.2,9.77 269.28,130.62 336.2,253.29 465.73,252.45 528.44,134.16 		"/>
		<linearGradient id="SVGID_2_" gradientUnits="userSpaceOnUse" x1="487.8868" y1="267.9072" x2="729.208" y2="267.9072">
			<stop  offset="0" style="stop-color:#9681BC"/>
			<stop  offset="0.9964" style="stop-color:#6166AE"/>
		</linearGradient>
		<polygon class="st3" points="670.75,151.77 550.13,150.46 487.89,268.48 550.13,385.36 670.75,381.82 729.21,266.26 		"/>
		<linearGradient id="SVGID_3_" gradientUnits="userSpaceOnUse" x1="831.2275" y1="196.1656" x2="1068.2014" y2="196.1656">
			<stop  offset="0" style="stop-color:#9681BC"/>
			<stop  offset="0.9964" style="stop-color:#6166AE"/>
		</linearGradient>
		<polygon class="st4" points="1010.79,85.26 892.35,79.1 831.23,193.55 892.35,311.88 1010.79,313.23 1068.2,201.07 		"/>
		<linearGradient id="SVGID_4_" gradientUnits="userSpaceOnUse" x1="21.9097" y1="579.6714" x2="284.4431" y2="579.6714">
			<stop  offset="0" style="stop-color:#9681BC"/>
			<stop  offset="0.9964" style="stop-color:#6166AE"/>
		</linearGradient>
		<polygon class="st5" points="220.92,459.99 89.7,457.12 21.91,579.55 89.7,702.22 220.92,699.84 284.44,580.03 		"/>
		<linearGradient id="SVGID_5_" gradientUnits="userSpaceOnUse" x1="243.3616" y1="714.3345" x2="487.8029" y2="714.3345">
			<stop  offset="0" style="stop-color:#F58F86"/>
			<stop  offset="1" style="stop-color:#ED72AC"/>
		</linearGradient>
		<polygon class="st6" points="428.59,596.07 306.41,596.18 243.36,715.71 306.41,832.6 428.59,827.6 487.8,710.6 		"/>
		<linearGradient id="SVGID_6_" gradientUnits="userSpaceOnUse" x1="243.3616" y1="445.7202" x2="487.8029" y2="445.7202">
			<stop  offset="0" style="stop-color:#9681BC"/>
			<stop  offset="0.9964" style="stop-color:#6166AE"/>
		</linearGradient>
		<polygon class="st7" points="428.59,332.69 306.41,327.23 243.36,443.88 306.41,563.65 428.59,564.21 487.8,449.91 		"/>
		<linearGradient id="SVGID_7_" gradientUnits="userSpaceOnUse" x1="1411.1691" y1="335.8386" x2="1177.1819" y2="705.5966">
			<stop  offset="0" style="stop-color:#9681BC"/>
			<stop  offset="0.9964" style="stop-color:#6166AE"/>
		</linearGradient>
		<polygon class="st8" points="1415.29,304.23 1317.53,301.6 1267.23,406.91 1317.53,512.87 1415.29,511.54 1462.81,408.2 		"/>
		<linearGradient id="SVGID_8_" gradientUnits="userSpaceOnUse" x1="1267.2311" y1="647.209" x2="1462.8097" y2="647.209">
			<stop  offset="0" style="stop-color:#9681BC"/>
			<stop  offset="0.9964" style="stop-color:#6166AE"/>
		</linearGradient>
		<polygon class="st9" points="1415.29,540.63 1317.53,542.52 1267.23,650.14 1317.53,753.79 1415.29,747.94 1462.81,642.41 		"/>
		<linearGradient id="SVGID_9_" gradientUnits="userSpaceOnUse" x1="1432.062" y1="297.1343" x2="1615.8085" y2="297.1343">
			<stop  offset="0" style="stop-color:#F58F86"/>
			<stop  offset="1" style="stop-color:#ED72AC"/>
		</linearGradient>
		<polygon class="st10" points="1571.12,198.88 1479.27,194.39 1432.06,295.39 1479.27,399.11 1571.12,399.88 1615.81,300.66 		"/>
		<linearGradient id="SVGID_10_" gradientUnits="userSpaceOnUse" x1="1587.3589" y1="351.4035" x2="1825.7533" y2="351.4035">
			<stop  offset="0" style="stop-color:#F58F86"/>
			<stop  offset="1" style="stop-color:#ED72AC"/>
		</linearGradient>
		<polygon class="st11" points="1631.75,301.12 1587.36,400.02 1784.82,401.69 1825.75,306.69 		"/>
		<polygon class="st12" points="1479.09,641.76 1431.87,746.95 1764.08,727.09 1805.37,628.86 		"/>
		<linearGradient id="SVGID_11_" gradientUnits="userSpaceOnUse" x1="1432.062" y1="525.173" x2="1615.8085" y2="525.173">
			<stop  offset="0" style="stop-color:#F58F86"/>
			<stop  offset="1" style="stop-color:#ED72AC"/>
		</linearGradient>
		<polygon class="st13" points="1571.12,423.16 1479.27,422.81 1432.06,525.95 1479.27,627.53 1571.12,624.16 1615.81,522.92 		"/>
		<linearGradient id="SVGID_12_" gradientUnits="userSpaceOnUse" x1="1909.8279" y1="39.7167" x2="1446.4094" y2="334.491">
			<stop  offset="0" style="stop-color:#9681BC"/>
			<stop  offset="0.9964" style="stop-color:#6166AE"/>
		</linearGradient>
		<polygon class="st14" points="1717.75,94.97 1631.3,88.75 1586.89,185.73 1631.3,287.31 1717.75,290.03 1759.85,194.68 		"/>
		<linearGradient id="SVGID_13_" gradientUnits="userSpaceOnUse" x1="1852.0913" y1="164.3045" x2="1580.2579" y2="337.214">
			<stop  offset="0" style="stop-color:#9681BC"/>
			<stop  offset="0.9964" style="stop-color:#6166AE"/>
		</linearGradient>
		<polygon class="st15" points="1875.85,108.29 1736.52,96.1 1778.35,195.49 1736.52,290.55 1875.85,290.91 1912.77,201.51 		"/>
		<linearGradient id="SVGID_14_" gradientUnits="userSpaceOnUse" x1="1586.8926" y1="523.1259" x2="1958" y2="523.1259">
			<stop  offset="0" style="stop-color:#9681BC"/>
			<stop  offset="0.9964" style="stop-color:#6166AE"/>
		</linearGradient>
		<polygon class="st16" points="1919.34,424.21 1586.89,422.94 1631.3,522.4 1586.89,623.31 1919.34,611.12 1958,517.03 		"/>
	</g>
	<g>
		<g>
			<g>
				
					<linearGradient id="SVGID_15_" gradientUnits="userSpaceOnUse" x1="-1237.804" y1="634.4443" x2="-982.2938" y2="634.4443" gradientTransform="matrix(-0.9998 0.0199 0.0199 0.9998 372.4841 -24.9433)">
					<stop  offset="0" style="stop-color:#B7C0CE"/>
					<stop  offset="1" style="stop-color:#ECEFF2"/>
				</linearGradient>
				<path class="st17" d="M1406.61,394.93l-35.93,365.87c-0.53,5.41,3.22,10.32,8.36,10.9l180.54,22.42
					c11.22,0.86,17.29-4.81,17.89-10.66l41.21-395.52c0.62-5.98-5.06-11.28-16.52-11.05l-184.99,7.63
					C1411.89,384.72,1407.15,389.4,1406.61,394.93z"/>
				
					<linearGradient id="SVGID_16_" gradientUnits="userSpaceOnUse" x1="-1128.405" y1="694.4683" x2="-1094.0311" y2="599.0511" gradientTransform="matrix(-0.9998 0.0199 0.0199 0.9998 372.4841 -24.9433)">
					<stop  offset="0.494" style="stop-color:#ECEFF2"/>
					<stop  offset="1" style="stop-color:#FFFFFF"/>
				</linearGradient>
				<path class="st18" d="M1398.49,394.45l-36,367.45c-0.53,5.44,3.23,10.36,8.38,10.95l186.98,21.31
					c5.95,0.68,11.34-3.57,11.95-9.44l41.31-397.31c0.62-6.01-3.89-10.74-10.01-10.52l-192.03,7.11
					C1403.79,384.19,1399.03,388.89,1398.49,394.45z"/>
				<linearGradient id="SVGID_17_" gradientUnits="userSpaceOnUse" x1="1486.8372" y1="590.0693" x2="1622.2883" y2="1304.5724">
					<stop  offset="0" style="stop-color:#FFC546"/>
					<stop  offset="0.9964" style="stop-color:#F36F56"/>
				</linearGradient>
				<path class="st19" d="M1402.41,414.86l-33.43,340.69c-0.5,5.08,3.03,9.68,7.85,10.22l175.89,19.52
					c5.53,0.61,10.54-3.35,11.1-8.82l38.05-366.64c0.58-5.58-3.6-10.02-9.28-9.86l-180.29,5.2
					C1407.37,405.32,1402.92,409.68,1402.41,414.86z"/>
			</g>
			
				<linearGradient id="SVGID_18_" gradientUnits="userSpaceOnUse" x1="-1114.1917" y1="425.1589" x2="-1327.5685" y2="1003.0544" gradientTransform="matrix(-0.9998 0.0199 0.0199 0.9998 372.4841 -24.9433)">
				<stop  offset="0" style="stop-color:#FFC546"/>
				<stop  offset="0.9964" style="stop-color:#F36F56"/>
			</linearGradient>
			<path class="st20" d="M1496.94,392.34c-0.2,2,1.23,3.57,3.19,3.51c1.97-0.06,3.73-1.74,3.93-3.74c0.2-2-1.23-3.57-3.2-3.51
				C1498.9,388.66,1497.14,390.34,1496.94,392.34z"/>
		</g>
	</g>
	<g>
		<g>
			<path class="st21" d="M1672.39,837.02l-1310.14-9.75v28.85c0,7.83,5.71,14.49,13.45,15.67l370.47,56.8
				c4.4,0.67,8.86,0.85,13.29,0.53l898.69-64.76c8.02-0.58,14.24-7.26,14.24-15.3V837.02z"/>
			<g>
				<path class="st21" d="M1196.94,789.34l-821.15,52.77c-14.69,0.94-26.64-9.09-26.64-22.41V285.88
					c0-13.32,11.95-24.13,26.64-24.13h821.15c12.11,0,21.89,9.76,21.89,21.81v482.56C1218.83,778.17,1209.05,788.56,1196.94,789.34z
					"/>
				<path class="st1" d="M1210.03,789.34l-821.15,52.77c-14.69,0.94-26.64-9.09-26.64-22.41V285.88c0-13.32,11.95-24.13,26.64-24.13
					h821.15c12.11,0,21.89,9.76,21.89,21.81v482.56C1231.93,778.17,1222.14,788.56,1210.03,789.34z"/>
				<path class="st22" d="M1184.45,755.32l-764.81,45.84c-11.96,0.72-21.67-7.52-21.67-18.4V315.4c0-10.88,9.72-19.73,21.67-19.78
					l764.81-2.88c9.99-0.04,18.06,7.96,18.06,17.87V736.3C1202.52,746.21,1194.44,754.72,1184.45,755.32z"/>
				<path class="st12" d="M828.46,276.35c0,4.96-4.23,8.99-9.45,9.01c-5.23,0.01-9.47-4-9.47-8.98s4.24-9,9.47-9.01
					C824.23,267.37,828.46,271.39,828.46,276.35z"/>
				<path class="st23" d="M1015.52,643.19c-63.63-30.99-113.66,8.28-161.94-30.47c-29.27-23.49-14.9-41.01-50.92-76.12
					c-39.89-38.88-65.87-25.81-105.96-60.81c-50.69-44.25-25.34-78.68-69.01-110.45c-52.97-38.54-110.1-2.87-160.53-39.83
					c-21.75-15.94-33.68-39.12-39.91-63.77h-49.34c-8.65,0-15.67,6.34-15.67,14.17v553.73c0,7.83,7.02,13.72,15.67,13.16
					l841.17-54.06c4.13-0.27,7.79-2.45,10.14-5.61c-61.58-2.03-99.41-20.72-123.59-40.04
					C1058.33,705.31,1066.53,668.04,1015.52,643.19z"/>
			</g>
			<path class="st12" d="M1242.76,787.87l-880.52,55.55l383.92,58.87c4.4,0.67,8.86,0.85,13.29,0.53l912.93-65.79l-415.62-48.78
				C1252.12,787.7,1247.43,787.57,1242.76,787.87z"/>
			<polygon class="st24" points="490.72,843.89 1223.78,796.96 1450.66,823.37 723.91,873.54 			"/>
		</g>
		<g>
			<defs>
				<path id="SVGID_19_" d="M1184.45,755.32l-764.81,45.84c-11.96,0.72-21.67-7.52-21.67-18.4V315.4c0-10.88,9.72-19.73,21.67-19.78
					l764.81-2.88c9.99-0.04,34.2,7.96,34.2,17.87l-16.14,425.68C1202.52,746.21,1194.44,754.72,1184.45,755.32z"/>
			</defs>
			<clipPath id="SVGID_20_">
				<use xlink:href="#SVGID_19_"  style="overflow:visible;"/>
			</clipPath>
			<g class="st25">
				<linearGradient id="SVGID_21_" gradientUnits="userSpaceOnUse" x1="1157.2811" y1="403.6942" x2="994.756" y2="698.2708">
					<stop  offset="0" style="stop-color:#FFC546"/>
					<stop  offset="0.9964" style="stop-color:#F36F56"/>
				</linearGradient>
				<path class="st26" d="M1116.85,472.81c5.03-14.51,3.01-22.46,0-27.09c-4.2-6.45-13.83-11.8-31.6-24.83
					c-1.16-0.85-3.17-2.37-2.92-3.21c0.63-2.07,10.3-1,18.72,3.21c12.2,6.1,14.74,6.57,21.99,8.73c12.82,3.82,24.09,0.63,41.21-4.22
					c7.06-2,16.96-5.38,28.22-11.29c0,0,12.42-5.64,15.8,0l-18.06,9.03c0,0,15.8-6.77,24.83-2.26l-31.6,13.54
					c0,0,23.7-6.77,24.83-2.26c-15.4,10.99-28.99,14.74-39.5,15.8c-16.18,1.63-28.35-2.77-32.73,3.39
					c-3.53,4.97,0.14,13.84,4.51,21.44H1116.85z"/>
				<linearGradient id="SVGID_22_" gradientUnits="userSpaceOnUse" x1="1043.0464" y1="598.594" x2="889.5511" y2="922.8909">
					<stop  offset="0" style="stop-color:#9681BC"/>
					<stop  offset="0.9964" style="stop-color:#6166AE"/>
				</linearGradient>
				<path class="st27" d="M904.67,578.9c14.08-21.09,31.37-33.73,43.89-41.35c4.52,1.99,11.46,5.32,19.39,10.33
					c22.87,14.45,25.38,24.86,44.79,36.91c10.29,6.39,23.04,14.31,39.41,13.23c18.84-1.24,31.75-13.7,37.12-18.87
					c36.81-35.5,22.41-102.77,20.82-109.73c13.92-0.38,27.84-0.75,41.76-1.13c7.32,12.84,47.67,94.72,18.06,177.2
					c-42.41,118.13-214.95,119.15-267.11,64.77C871.72,677.87,871.9,627.98,904.67,578.9z"/>
				
					<linearGradient id="SVGID_23_" gradientUnits="userSpaceOnUse" x1="-3228.1021" y1="834.9797" x2="-3381.5974" y2="1159.277" gradientTransform="matrix(-1 0 0 1 -2388.8848 0)">
					<stop  offset="0" style="stop-color:#9681BC"/>
					<stop  offset="0.9964" style="stop-color:#6166AE"/>
				</linearGradient>
				<path class="st28" d="M636.91,931.47c-4.7-6.68-13-20.51-19.37-38.51c-17.24-48.69-7.88-92.38-5.55-104.76
					c7.8-41.57,9-118.12-16.87-270.61c46.19-11.66,115.65-23.33,199.32-15.6c63.43,5.86,115.79,21.1,154.12,35.56
					c1,70.14-4.68,125.77-9.97,163.3c-8.48,60.15-16.74,79.35-17.71,130.78c-1.46,77.4,16.23,88.3,2.75,112.3
					C884.89,1012.92,690.93,1008.17,636.91,931.47z"/>
				
					<linearGradient id="SVGID_24_" gradientUnits="userSpaceOnUse" x1="-3194.4297" y1="562.5477" x2="-3014.9495" y2="262.5463" gradientTransform="matrix(-1 0 0 1 -2388.8848 0)">
					<stop  offset="0" style="stop-color:#FFC546"/>
					<stop  offset="0.9964" style="stop-color:#F36F56"/>
				</linearGradient>
				<path class="st29" d="M766.44,419.7c-2.3,21.82-4.6,43.64-6.89,65.46c-0.62,5.91-5.36,10.54-11.29,11.03
					c-23.45,1.93-46.9,3.87-70.35,5.8l130.05,39.87l59.62-28.43c-18.19-5.64-36.38-11.27-54.57-16.91
					c-4.67-1.45-8.05-5.51-8.62-10.37c-1.58-13.47-3.17-26.95-4.75-40.42L766.44,419.7z"/>
				
					<linearGradient id="SVGID_25_" gradientUnits="userSpaceOnUse" x1="-3206.6709" y1="446.3435" x2="-3068.8093" y2="196.6323" gradientTransform="matrix(-1 0 0 1 -2388.8848 0)">
					<stop  offset="0" style="stop-color:#FFC546"/>
					<stop  offset="0.9964" style="stop-color:#F36F56"/>
				</linearGradient>
				<path class="st30" d="M753.74,409.55c14.34,32.9,50.21,60.13,68.75,52.05c18.54-8.08,16.57-49,2.23-81.9
					c-14.34-32.9-41.79-45.44-60.33-37.37C745.85,350.41,739.4,376.65,753.74,409.55z"/>
				
					<linearGradient id="SVGID_26_" gradientUnits="userSpaceOnUse" x1="-3126.804" y1="277.5598" x2="-3204.8391" y2="415.4218" gradientTransform="matrix(-1 0 0 1 -2388.8848 0)">
					<stop  offset="0" style="stop-color:#454C8D"/>
					<stop  offset="0.9964" style="stop-color:#26274F"/>
				</linearGradient>
				<path class="st31" d="M777.85,406.56c-1.81,1.35-8.87-8.33-12.78-6.6c-3.3,1.46-4.2,10.96-0.19,17.48
					c3.41,5.55,7.94,4.99,9.26,9.32c2.17,7.12-7.3,17.74-10.85,16.49c-2.27-0.8-0.39-5.88-2.6-11.69
					c-4.34-11.41-18.61-10.1-30.26-18.82c-18.32-13.72-23.31-47.14-12.38-59.65c4.15-4.75,8.8-4.43,14.45-12.09
					c6.11-8.29,3.44-12.45,8.14-17.78c7.97-9.04,25.47-8.2,36.53-4.86c13.92,4.2,14.92,11.55,24.24,11.01
					c11.03-0.64,12.62-11.11,25.77-13.04c0.76-0.11,13.03-1.72,22.28,6.27c12.01,10.37,9.07,28.42,8.65,30.98
					c-2.66,16.36-16.01,31.11-30.78,34.43c-3.11,0.7-2.48,0.04-33.76-0.72c-10.33-0.25-16.58-0.32-18.66,3.31
					C771.91,395.85,779.67,405.2,777.85,406.56z"/>
				
					<linearGradient id="SVGID_27_" gradientUnits="userSpaceOnUse" x1="-3128.8806" y1="1064.6635" x2="-2822.3105" y2="264.916" gradientTransform="matrix(-1 0 0 1 -2388.8848 0)">
					<stop  offset="0" style="stop-color:#9681BC"/>
					<stop  offset="0.9964" style="stop-color:#6166AE"/>
				</linearGradient>
				<path class="st32" d="M611.99,638.81c16.6,7.53,25.55,17.07,30.67,25.87c19.53,33.54-10.51,66.43,11.06,108.36
					c14.84,28.86,34.52,23.88,44.23,50.86c12.46,34.62-14.65,57.44-13.27,92.88c0.7,17.87,8.7,40.2,35.82,65.71
					c-35.6-9.82-66.55-26.85-83.58-51.03c-4.7-6.68-13-20.51-19.37-38.51c-17.24-48.69-7.88-92.38-5.55-104.76
					C617.37,759.53,619.6,714.21,611.99,638.81z"/>
				
					<linearGradient id="SVGID_28_" gradientUnits="userSpaceOnUse" x1="-3054.0935" y1="917.3408" x2="-3207.5889" y2="1241.6381" gradientTransform="matrix(-1 0 0 1 -2388.8848 0)">
					<stop  offset="0" style="stop-color:#9681BC"/>
					<stop  offset="0.9964" style="stop-color:#6166AE"/>
				</linearGradient>
				<path class="st33" d="M538.85,959.43c-57.92-28-59.4-127.16-60.2-178.25c-0.63-40.16-3.25-208.87,94.26-255.36
					c17.02-8.11,33.22-10.66,45.06-11.43c11.22,6.88,39.29,26.24,49.28,61.1c5.65,19.74,3.92,38.92-3.58,64.87
					c-19.42,67.13-48.42,79.02-66.23,123.36c-36.23,90.2,29.9,170.72-4.99,198.2C574.4,976.15,541.82,960.87,538.85,959.43z"/>
			</g>
		</g>
	</g>
	<g>
		<path class="st34" d="M1280.51,163.12c0-65.11-55.43-117.89-123.81-117.89s-123.81,52.78-123.81,117.89
			c0,39.51,20.42,74.48,51.75,95.87c13.29,9.07,21.36,24.03,21.36,40.13v9.02c0,19.6,15.89,35.49,35.49,35.49h30.42
			c19.6,0,35.49-15.89,35.49-35.49v-9.02c0-16.1,8.06-31.05,21.36-40.13C1260.09,237.6,1280.51,202.63,1280.51,163.12z"/>
		<linearGradient id="SVGID_29_" gradientUnits="userSpaceOnUse" x1="1154.1191" y1="416.824" x2="1156.318" y2="399.2334">
			<stop  offset="3.597000e-03" style="stop-color:#26274F"/>
			<stop  offset="1" style="stop-color:#454C8D"/>
		</linearGradient>
		<ellipse class="st35" cx="1156.7" cy="396.19" rx="27.46" ry="14.54"/>
		<linearGradient id="SVGID_30_" gradientUnits="userSpaceOnUse" x1="1145.0759" y1="400.7917" x2="1167.0643" y2="361.2125">
			<stop  offset="3.597000e-03" style="stop-color:#26274F"/>
			<stop  offset="1" style="stop-color:#454C8D"/>
		</linearGradient>
		<path class="st36" d="M1120.21,370.22v14.85c0,5.02,2.86,9.63,7.39,11.79c6.3,3,16.76,6.3,31.97,5.91
			c12.34-0.32,20.39-2.33,25.5-4.45c4.94-2.05,8.11-6.93,8.11-12.28v-8.22L1120.21,370.22z"/>
		<linearGradient id="SVGID_31_" gradientUnits="userSpaceOnUse" x1="1120.2087" y1="382.0351" x2="1193.1873" y2="382.0351">
			<stop  offset="3.597000e-03" style="stop-color:#26274F"/>
			<stop  offset="1" style="stop-color:#454C8D"/>
		</linearGradient>
		<path class="st37" d="M1120.21,383.22c1.11,1.08,2.4,2,3.85,2.69c7.06,3.37,53.32,10.89,64.48,6.7c1.45-0.54,2.75-1.27,3.89-2.15
			c0.49-1.4,0.76-2.89,0.76-4.43v-8.22l-72.98-7.6V383.22z"/>
		<linearGradient id="SVGID_32_" gradientUnits="userSpaceOnUse" x1="1147.1689" y1="389.9762" x2="1168.8826" y2="348.1982">
			<stop  offset="3.597000e-03" style="stop-color:#26274F"/>
			<stop  offset="1" style="stop-color:#454C8D"/>
		</linearGradient>
		<path class="st38" d="M1123.45,360.12c-4.11-0.43-7.69,2.8-7.69,6.93v0.42c0,5.64,3.21,10.8,8.29,13.23
			c7.06,3.37,53.32,10.89,64.48,6.7c5.62-2.11,9.1-6.93,9.1-12.93v-0.34c0-3.57-2.7-6.56-6.24-6.93L1123.45,360.12z"/>
		<linearGradient id="SVGID_33_" gradientUnits="userSpaceOnUse" x1="1116.939" y1="369.7354" x2="1196.4208" y2="369.7354">
			<stop  offset="3.597000e-03" style="stop-color:#26274F"/>
			<stop  offset="1" style="stop-color:#454C8D"/>
		</linearGradient>
		<path class="st39" d="M1191.39,367.19l-67.94-7.07c-2.68-0.28-5.13,1-6.51,3.07c1.36,3.22,3.85,5.91,7.12,7.46
			c7.06,3.37,55.29,11.87,64.48,7.55c3.58-1.69,6.38-4.53,7.88-7.99C1195.3,368.56,1193.5,367.41,1191.39,367.19z"/>
		<linearGradient id="SVGID_34_" gradientUnits="userSpaceOnUse" x1="1115.7616" y1="355.3744" x2="1197.6345" y2="355.3744">
			<stop  offset="3.597000e-03" style="stop-color:#26274F"/>
			<stop  offset="1" style="stop-color:#454C8D"/>
		</linearGradient>
		<path class="st40" d="M1120.79,336.06c-2.78,0-5.03,2.25-5.03,5.03v11.63c0,5.64,3.21,10.8,8.29,13.23
			c7.06,3.37,55.29,11.87,64.48,7.54c5.43-2.56,9.1-7.78,9.1-13.78v-18.62c0-2.78-2.25-5.03-5.03-5.03H1120.79z"/>
		<linearGradient id="SVGID_35_" gradientUnits="userSpaceOnUse" x1="1154.6647" y1="349.1988" x2="1162.7272" y2="311.4521">
			<stop  offset="3.597000e-03" style="stop-color:#26274F"/>
			<stop  offset="1" style="stop-color:#454C8D"/>
		</linearGradient>
		<ellipse class="st41" cx="1156.7" cy="339.68" rx="39.92" ry="9.44"/>
		<linearGradient id="SVGID_36_" gradientUnits="userSpaceOnUse" x1="1139.1816" y1="138.577" x2="1299.1385" y2="392.5293">
			<stop  offset="0" style="stop-color:#FCB149"/>
			<stop  offset="0.0125" style="stop-color:#FCB449"/>
			<stop  offset="0.0767" style="stop-color:#FEBE47"/>
			<stop  offset="0.1587" style="stop-color:#FEC347"/>
			<stop  offset="0.3183" style="stop-color:#FFC546"/>
			<stop  offset="0.447" style="stop-color:#FDBD49"/>
			<stop  offset="0.6713" style="stop-color:#FAA84D"/>
			<stop  offset="0.8658" style="stop-color:#F79350"/>
			<stop  offset="1" style="stop-color:#F79350"/>
		</linearGradient>
		<path class="st42" d="M1280.51,163.12c0-65.11-55.43-117.89-123.81-117.89s-123.81,52.78-123.81,117.89
			c0,39.51,20.42,74.48,51.75,95.87c13.29,9.07,21.36,24.03,21.36,40.13v9.02c0,19.6,15.89,35.49,35.49,35.49h30.42
			c19.6,0,35.49-15.89,35.49-35.49v-9.02c0-16.1,8.06-31.05,21.36-40.13C1260.09,237.6,1280.51,202.63,1280.51,163.12z"/>
		<ellipse class="st43" cx="1156.7" cy="332.24" rx="29.21" ry="6.91"/>
		<g>
			<linearGradient id="SVGID_37_" gradientUnits="userSpaceOnUse" x1="1109.9595" y1="334.1173" x2="1142.5757" y2="238.8343">
				<stop  offset="0.494" style="stop-color:#ECEFF2"/>
				<stop  offset="1" style="stop-color:#FFFFFF"/>
			</linearGradient>
			<path class="st44" d="M1149.09,336.46c-0.84,0-1.56-0.62-1.67-1.47l-21.49-167.13c-0.12-0.92,0.53-1.77,1.46-1.89
				c0.93-0.12,1.77,0.53,1.89,1.46l21.49,167.13c0.12,0.92-0.53,1.77-1.46,1.89C1149.23,336.45,1149.16,336.46,1149.09,336.46z"/>
			<linearGradient id="SVGID_38_" gradientUnits="userSpaceOnUse" x1="1141.1415" y1="344.7911" x2="1173.7577" y2="249.5081">
				<stop  offset="0.494" style="stop-color:#ECEFF2"/>
				<stop  offset="1" style="stop-color:#FFFFFF"/>
			</linearGradient>
			<path class="st45" d="M1162.43,336.46c-0.07,0-0.14,0-0.22-0.01c-0.92-0.12-1.58-0.96-1.46-1.89l21.49-167.13
				c0.12-0.92,0.96-1.58,1.89-1.46c0.92,0.12,1.58,0.96,1.46,1.89l-21.49,167.13C1164,335.84,1163.27,336.46,1162.43,336.46z"/>
			<linearGradient id="SVGID_39_" gradientUnits="userSpaceOnUse" x1="1098.6017" y1="330.2295" x2="1131.2179" y2="234.9465">
				<stop  offset="0.494" style="stop-color:#ECEFF2"/>
				<stop  offset="1" style="stop-color:#FFFFFF"/>
			</linearGradient>
			<path class="st46" d="M1179.94,167.72c-0.55,0-1.09-0.27-1.41-0.76l-5.93-9c-0.06-0.09-0.16-0.15-0.24-0.14
				c-0.15,0-0.21,0.11-0.23,0.14l-3.92,6.56c-0.65,1.09-1.79,1.75-3.04,1.79c-1.25,0.04-2.43-0.58-3.13-1.63l-5.38-8.06
				c-0.06-0.09-0.14-0.13-0.23-0.13c-0.11,0.02-0.17,0.04-0.22,0.12l-4.72,6.83c-0.68,0.99-1.8,1.58-2.99,1.58c0,0-0.01,0-0.01,0
				c-1.19,0-2.31-0.59-3-1.57l-6.81-9.76c-0.06-0.09-0.15-0.12-0.24-0.13c-0.1,0-0.17,0.05-0.23,0.15l-6.22,10.73
				c-0.47,0.81-1.5,1.08-2.31,0.61c-0.81-0.47-1.08-1.5-0.61-2.31l6.22-10.73c0.63-1.09,1.76-1.77,3.01-1.83
				c1.24-0.06,2.43,0.53,3.15,1.57l6.81,9.76c0.06,0.08,0.14,0.13,0.23,0.13c0.09,0,0.17-0.04,0.22-0.12l4.72-6.83
				c0.69-1,1.83-1.59,3.03-1.58c1.21,0.01,2.34,0.62,3.01,1.64l5.38,8.06c0.06,0.09,0.15,0.17,0.24,0.13c0.15,0,0.21-0.11,0.23-0.14
				l3.92-6.56c0.65-1.09,1.79-1.76,3.05-1.79c1.25-0.03,2.43,0.59,3.13,1.65l5.93,9c0.51,0.78,0.3,1.82-0.48,2.34
				C1180.58,167.63,1180.26,167.72,1179.94,167.72z"/>
		</g>
		<linearGradient id="SVGID_40_" gradientUnits="userSpaceOnUse" x1="1144.7949" y1="81.334" x2="1112.9116" y2="344.0951">
			<stop  offset="0" style="stop-color:#FCB149"/>
			<stop  offset="0.0125" style="stop-color:#FCB449"/>
			<stop  offset="0.0767" style="stop-color:#FEBE47"/>
			<stop  offset="0.1587" style="stop-color:#FEC347"/>
			<stop  offset="0.3183" style="stop-color:#FFC546"/>
			<stop  offset="0.447" style="stop-color:#FDBD49"/>
			<stop  offset="0.6713" style="stop-color:#FAA84D"/>
			<stop  offset="0.8658" style="stop-color:#F79350"/>
			<stop  offset="1" style="stop-color:#F79350"/>
		</linearGradient>
		<path class="st47" d="M1158.94,256.11c2.65-45.44,79.25-56.07,78.92-96.65c-0.2-24.99-30.64-43.55-37.14-47.27
			c-47.89-27.39-106.84,4.24-119.02-18.15c-3.03-5.57-1.61-11.64-0.8-15.1c1.22-5.22,3.99-10.09,8.1-14.54
			c-33.79,21.05-56.12,57.4-56.12,98.72c0,39.51,20.42,74.48,51.75,95.87c13.29,9.07,21.36,24.03,21.36,40.13v9.02
			c0,19.6,15.89,35.49,35.49,35.49h30.42c19.6,0,35.49-15.89,35.49-35.49v-7.21c-4.19,3.21-8.99,5.45-14.27,5.4
			C1174.84,306.18,1157.62,278.72,1158.94,256.11z"/>
		<ellipse class="st48" cx="1158.68" cy="167.72" rx="106.54" ry="102.74"/>
	</g>
	<g>
		
			<linearGradient id="SVGID_41_" gradientUnits="userSpaceOnUse" x1="-3945.2183" y1="172.4066" x2="-4175.168" y2="470.8514" gradientTransform="matrix(-1 0 0 1 -3599.0042 0)">
			<stop  offset="0" style="stop-color:#F58F86"/>
			<stop  offset="1" style="stop-color:#ED72AC"/>
		</linearGradient>
		<path class="st49" d="M626.13,208.29v190.82l37.72,29.57l-37.72,0.7l-34.79,0.65l-283.19,5.28c-23.85,0.44-43.3-17.9-43.3-40.99
			V204.49c0-23.08,19.44-41.48,43.3-41.11l278.1,4.39C608.33,168.12,626.13,186.26,626.13,208.29z"/>
		<g>
			<g>
				<path class="st12" d="M528.64,275.37c0,45.28-37.15,82.33-83.48,82.74c-46.89,0.42-85.31-36.75-85.31-83.03
					s38.43-83.32,85.31-82.74C491.49,192.92,528.64,230.09,528.64,275.37z"/>
				<path class="st50" d="M523.89,272.93c-1.02-32.64-22.44-60.38-52.29-71.12c-8.25-2.97-17.15-4.65-26.44-4.76
					c-44.21-0.52-80.42,34.42-80.42,78.05c0,43.63,36.21,78.69,80.42,78.32c43.71-0.37,78.79-35.31,78.79-78.05
					C523.95,274.55,523.91,273.74,523.89,272.93z"/>
				<path class="st51" d="M523.89,272.93c-1.02-32.64-22.44-60.38-52.29-71.12c-8.25-2.97-17.15-4.65-26.44-4.76
					c-44.21-0.52-80.42,34.42-80.42,78.05c0,43.63,36.21,78.69,80.42,78.32c43.71-0.37,78.79-35.31,78.79-78.05
					C523.95,274.55,523.91,273.74,523.89,272.93z"/>
				<g class="st52">
					
						<linearGradient id="SVGID_42_" gradientUnits="userSpaceOnUse" x1="576.9537" y1="178.6819" x2="347.6466" y2="476.2928" gradientTransform="matrix(1 0 0 1 -33.9889 0)">
						<stop  offset="0" style="stop-color:#F58F86"/>
						<stop  offset="1" style="stop-color:#ED72AC"/>
					</linearGradient>
					<path class="st53" d="M523.89,272.93c-1.02-32.64-22.44-60.38-52.29-71.12l-26.44,73.42L523.89,272.93z"/>
				</g>
			</g>
			<g>
				<g>
					<polygon class="st12" points="534.55,377.49 353.67,379.59 353.67,371.54 534.55,369.62 					"/>
					<polygon class="st12" points="534.55,393.22 353.67,395.7 353.67,387.65 534.55,385.35 					"/>
				</g>
			</g>
		</g>
	</g>
	<g>
		<defs>
			<path id="SVGID_43_" d="M1193.19,316.03l-36.49,276.63c-171.35-26.55,215.31,172.58,220.14,173.11l175.89,19.52
				c5.53,0.61,10.54-3.35,11.1-8.82l22.27-214.56l207.82-10.65c47.63-2.44,85.68-40.55,88.03-88.19
				c5.32-107.62,13.09-280.44,9.16-280.32l-235.91,2.75C1523.38,65.69,1193.7,310.84,1193.19,316.03z"/>
		</defs>
		<clipPath id="SVGID_44_">
			<use xlink:href="#SVGID_43_"  style="overflow:visible;"/>
		</clipPath>
		<g class="st54">
			
				<linearGradient id="SVGID_45_" gradientUnits="userSpaceOnUse" x1="-4648.0586" y1="-763.5605" x2="-4752.3057" y2="-450.8189" gradientTransform="matrix(-0.9488 -0.316 -0.316 0.9488 -3377.4324 -433.9529)">
				<stop  offset="0" style="stop-color:#AC316E"/>
				<stop  offset="1" style="stop-color:#7A2E3E"/>
			</linearGradient>
			<path class="st55" d="M1295.18,429.92c-2.45-9.65-11.74-44.94-17.74-60.57c-8.32-21.63-21.02-48.15-24-47.09
				c-1.75,0.62,0.23,10.61,0.52,12.07c2.62,13.16,7.79,14.98,6.99,22.22c-0.86,7.75-7.09,8.4-7.52,16.93
				c-0.35,6.94,3.47,12.28,4.07,13.09c4.24,5.76,8.84,5.1,13.28,9.76c7.14,7.51,8.98,30.73,8.98,41.21L1295.18,429.92z"/>
			<linearGradient id="SVGID_46_" gradientUnits="userSpaceOnUse" x1="1240.6492" y1="546.7957" x2="1449.9429" y2="546.7957">
				<stop  offset="0" style="stop-color:#F58F86"/>
				<stop  offset="1" style="stop-color:#ED72AC"/>
			</linearGradient>
			<path class="st56" d="M1295.4,422.87c-6.17,2.6-12.34,5.21-18.5,7.81c-8.32,14.16-19.35,36.14-26.26,64.69
				c-7.44,30.72-24.4,100.76,15.65,142.95c30.54,32.17,79.22,32.41,97.74,32.39c17.12-0.01,32.37,0.11,46.92-8.12
				c31.82-18.01,44.82-66.89,36.59-122.12c-33.2,31.38-72.94,43.26-97.04,29.19c-18.95-11.06-27.61-37.82-31.3-49.2
				c-5.49-16.92-3.8-24.83-8.58-48.25C1306.19,450.56,1299.9,433.59,1295.4,422.87z"/>
			<g class="st57">
				<linearGradient id="SVGID_47_" gradientUnits="userSpaceOnUse" x1="1240.6492" y1="549.0591" x2="1449.9425" y2="549.0591">
					<stop  offset="0" style="stop-color:#F58F86"/>
					<stop  offset="1" style="stop-color:#ED72AC"/>
				</linearGradient>
				<path class="st58" d="M1340.7,639.47c-10.09-13.61-4.8-29.31-21.07-45.15c-20.57-20.02-45.04-10.49-54.93-27.09
					c-8.07-13.55,2.46-29.57,10.53-54.93c6.27-19.67,11.94-47.75,9.44-84.91c-2.59,1.1-5.19,2.19-7.78,3.29
					c-8.32,14.16-19.35,36.14-26.26,64.69c-7.44,30.72-24.4,100.76,15.65,142.95c30.54,32.17,79.22,32.41,97.74,32.39
					c17.12-0.01,32.37,0.11,46.92-8.12c4.03-2.28,7.75-5.06,11.17-8.27C1370.74,661.57,1349.76,651.69,1340.7,639.47z"/>
			</g>
			<linearGradient id="SVGID_48_" gradientUnits="userSpaceOnUse" x1="1390.0507" y1="673.8029" x2="1621.9493" y2="673.8029">
				<stop  offset="0" style="stop-color:#F58F86"/>
				<stop  offset="1" style="stop-color:#ED72AC"/>
			</linearGradient>
			<path class="st59" d="M1621.87,789.23c0.35-17.1,1.27-111.43-44.41-179.27c-10.47-15.55-28.99-43.06-64.55-61.27
				c-13.86-7.1-26.37-10.76-34.95-12.75c-10.14,1.51-20.28,3.02-30.43,4.52c-9.71,8.85-22.89,22.72-34.54,42.35
				c-7.37,12.43-19.57,33-22.4,59.56c-3.29,30.95,9.01,43.15,19.11,91.34c5.48,26.14,7.21,48.06,7.81,62.5
				c35.09,3.02,70.17,6.03,105.26,9.05c0.55-16.63,2.01-35.13,4.93-55.1c3.02-20.67,7.1-39.39,11.51-55.92
				c4.72,18.79,8.87,40.74,11.1,65.38c1.54,17.05,1.94,32.9,1.64,47.29c4.26,1.68,28.26,10.67,51.4-1.64
				C1612.41,800.46,1618.33,793.98,1621.87,789.23z"/>
			<linearGradient id="SVGID_49_" gradientUnits="userSpaceOnUse" x1="1420.1067" y1="358.2231" x2="1864.5508" y2="358.2231">
				<stop  offset="0" style="stop-color:#321944"/>
				<stop  offset="1" style="stop-color:#6C3A77"/>
			</linearGradient>
			<path class="st60" d="M1462.88,479.83c-23.43-19.09-35.14-28.64-39.5-40.84c-9.53-26.65,3.3-56.84,18.64-74.24
				c21.52-24.42,52.93-29.27,72.8-32.33c25.54-3.94,27.16,2.07,39.06-3.06c32.89-14.17,21.81-60.65,52.38-96.32
				c33.73-39.36,94.28-37.7,109.57-36.67c81.47,5.44,123.29,75.98,127.45,83.28c38.56,67.62,20.2,149.21-19.09,196.19
				c-11.23,13.43-39.97,47.8-73.24,44.39c-32.03-3.29-41.07-38.82-85.61-44.64c-6.22-0.81-25.08-3.28-45.77,4.7
				c-23.37,9.01-27.01,22.83-51.93,31.51c-20.21,7.04-37.77,4.91-41.28,4.44C1504.27,513.25,1490.17,502.06,1462.88,479.83z"/>
			<g class="st57">
				<linearGradient id="SVGID_50_" gradientUnits="userSpaceOnUse" x1="1420.1067" y1="407.9112" x2="1864.552" y2="407.9112">
					<stop  offset="0" style="stop-color:#321944"/>
					<stop  offset="1" style="stop-color:#6C3A77"/>
				</linearGradient>
				<path class="st61" d="M1851.13,295.37c8.34,75.75-0.06,103.04-13.82,108.59c-19.26,7.77-44.4-28.87-74.49-18.81
					c-27.07,9.05-23.49,44.3-48.34,52.04c-31.41,9.78-52.56-41.73-90.1-38.5c-44.69,3.85-50.32,79.88-100.07,93.3
					c-15.07,4.06-35.81,2.8-64.29-14.52c0.94,0.77,1.9,1.55,2.88,2.35c27.29,22.24,41.39,33.42,63.47,36.4
					c3.51,0.47,21.07,2.6,41.28-4.44c24.92-8.69,28.57-22.51,51.93-31.51c20.69-7.98,39.55-5.51,45.77-4.7
					c44.54,5.83,53.58,41.36,85.61,44.64c33.27,3.41,62-30.95,73.24-44.39C1860.47,432.44,1878.9,359.53,1851.13,295.37z"/>
			</g>
			<linearGradient id="SVGID_51_" gradientUnits="userSpaceOnUse" x1="1484.1157" y1="607.825" x2="1479.6012" y2="462.2296">
				<stop  offset="0" style="stop-color:#AC316E"/>
				<stop  offset="1" style="stop-color:#7A2E3E"/>
			</linearGradient>
			<path class="st62" d="M1452.56,490.18c0,0-0.85,21.97,0,36.72c0.62,10.8-8.71,16.95-8.71,16.95s-5.13,8.79,22.6,10.25
				c27.73,1.47,54.71,0,54.71,0s-27.11-18.03-33.3-22.82c-6.19-4.79-9.52-40.62-5.55-63.31L1452.56,490.18z"/>
			<linearGradient id="SVGID_52_" gradientUnits="userSpaceOnUse" x1="1453.9054" y1="503.3783" x2="1495.101" y2="368.505">
				<stop  offset="0" style="stop-color:#AC316E"/>
				<stop  offset="1" style="stop-color:#7A2E3E"/>
			</linearGradient>
			<path class="st63" d="M1445.46,419.28c0,0-14.11,34.03-14.04,54.59c0.07,20.56,14.45,32.36,25.35,27.28
				c10.9-5.08,27.33-26.46,27.33-26.46s2.21,5.76,10.57,0s14.57-38.08-1.69-28.91c0,0,2.57-9.06-1.44-22.2
				C1487.55,410.43,1450.22,396.24,1445.46,419.28z"/>
			<g class="st57">
				<linearGradient id="SVGID_53_" gradientUnits="userSpaceOnUse" x1="1390.0507" y1="723.8857" x2="1621.9495" y2="723.8857">
					<stop  offset="0" style="stop-color:#F58F86"/>
					<stop  offset="1" style="stop-color:#ED72AC"/>
				</linearGradient>
				<path class="st64" d="M1562.67,745.56c-12.23-19.19,6.42-35.83-1.5-66.21c-6.76-25.92-28.78-46.16-36.87-42.89
					c-11.18,4.52,10.79,51.26-11.29,72.99c-14.65,14.42-33.76,3.09-53.42,15.8c-12.97,8.38-26,27.11-27.02,72.27
					c30.07,2.58,60.14,5.17,90.22,7.75c0.55-16.63,2.01-35.13,4.93-55.1c3.02-20.67,7.1-39.39,11.51-55.92
					c4.72,18.79,8.87,40.74,11.1,65.38c1.54,17.05,1.94,32.9,1.64,47.29c4.26,1.68,28.26,10.67,51.4-1.64
					c1.29-0.69,2.51-1.41,3.68-2.16c-0.59-9.96-3.15-21.34-10.52-31.21C1584.53,755.86,1571.52,759.45,1562.67,745.56z"/>
			</g>
		</g>
	</g>
	<g>
		<g>
			<linearGradient id="SVGID_54_" gradientUnits="userSpaceOnUse" x1="1334.2423" y1="159.1417" x2="1403.2878" y2="272.1761">
				<stop  offset="0" style="stop-color:#F58F86"/>
				<stop  offset="1" style="stop-color:#ED72AC"/>
			</linearGradient>
			<path class="st65" d="M1455.58,178.22l-148.4-3.8c-11.8-0.3-21.58,8.7-21.79,20.13l-1.35,73.6
				c-0.21,11.52,9.28,20.86,21.15,20.86h149.23c11.03,0,20.02-8.95,20.13-19.98l0.67-70.49
				C1475.33,187.6,1466.56,178.5,1455.58,178.22z"/>
			<linearGradient id="SVGID_55_" gradientUnits="userSpaceOnUse" x1="1236.8011" y1="214.9363" x2="1308.2567" y2="331.9161">
				<stop  offset="0" style="stop-color:#F58F86"/>
				<stop  offset="1" style="stop-color:#ED72AC"/>
			</linearGradient>
			<path class="st66" d="M1297.06,252.71l-52.45,33.51c-1.32,0.84-0.73,2.78,0.84,2.78h74.1L1297.06,252.71z"/>
		</g>
		<g>
			<linearGradient id="SVGID_56_" gradientUnits="userSpaceOnUse" x1="1569.6606" y1="85.7292" x2="1332.693" y2="452.3578">
				<stop  offset="0" style="stop-color:#9681BC"/>
				<stop  offset="0.9964" style="stop-color:#6166AE"/>
			</linearGradient>
			<path class="st67" d="M1679.6,222.15l-46.42-33.93l0.21-96.01c0.02-10.44-8.13-19.32-18.26-19.84l-218.09-11.35
				c-11.27-0.59-20.58,7.91-20.74,18.99l-1.72,121.01c-0.16,11.22,8.97,20.46,20.33,20.63l193.45,2.97l26.3,0.4l63.81,0.98
				C1680.45,226.04,1681.24,223.34,1679.6,222.15z"/>
			<g>
				<path class="st12" d="M1470.48,139.61c-0.07,6.98-5.79,12.45-12.8,12.23c-7.03-0.22-12.69-6.1-12.61-13.11
					c0.08-7.01,5.85-12.48,12.87-12.21C1464.95,126.78,1470.55,132.64,1470.48,139.61z"/>
				<path class="st12" d="M1513.47,141.1c-0.05,6.91-5.65,12.33-12.52,12.11c-6.89-0.22-12.45-6.03-12.38-12.98
					c0.06-6.94,5.71-12.36,12.59-12.1C1508.02,128.4,1513.52,134.2,1513.47,141.1z"/>
				<path class="st12" d="M1555.6,142.56c-0.04,6.84-5.52,12.21-12.25,12c-6.76-0.21-12.21-5.97-12.16-12.85
					c0.05-6.87,5.57-12.24,12.32-11.98C1550.23,129.99,1555.64,135.73,1555.6,142.56z"/>
			</g>
		</g>
	</g>
	<g class="st68">
		<g>
			<linearGradient id="SVGID_57_" gradientUnits="userSpaceOnUse" x1="1203.4978" y1="939.7513" x2="1227.902" y2="861.5142">
				<stop  offset="3.597000e-03" style="stop-color:#26274F"/>
				<stop  offset="1" style="stop-color:#454C8D"/>
			</linearGradient>
			<path class="st69" d="M1246.55,924.19l-54.73,10.54c-11.07,1.09-25.74-10.82-25.74-20.93v-19.34c0-10.11,9.01-19.11,20.08-20.1
				l60.39-5.39c10.82-0.97,19.56,6.32,19.56,16.26v19.02C1266.11,914.2,1257.37,923.12,1246.55,924.19z"/>
			<linearGradient id="SVGID_58_" gradientUnits="userSpaceOnUse" x1="1318.9536" y1="926.201" x2="1351.1097" y2="823.1125">
				<stop  offset="3.597000e-03" style="stop-color:#26274F"/>
				<stop  offset="1" style="stop-color:#454C8D"/>
			</linearGradient>
			<path class="st70" d="M1364.69,912.56l-52.64,10.19c-10.64,1.05-24.68-10.61-24.68-20.52v-48.49c0-9.91,8.65-18.67,19.29-19.57
				l58.03-4.89c10.4-0.88,28.52,7.16,28.52,16.91l-9.72,46.87C1383.48,902.81,1375.08,911.54,1364.69,912.56z"/>
			<linearGradient id="SVGID_59_" gradientUnits="userSpaceOnUse" x1="1424.7401" y1="911.382" x2="1474.5702" y2="751.633">
				<stop  offset="3.597000e-03" style="stop-color:#26274F"/>
				<stop  offset="1" style="stop-color:#454C8D"/>
			</linearGradient>
			<path class="st71" d="M1478.26,901.38l-48.67,10.28c-10.23,1.01-25.68-10.83-25.68-20.55V777.68c0-9.72,8.32-18.2,18.55-18.95
				l55.8-4.08c10-0.73,29.62,7.29,29.62,16.85l-11.54,110.78C1496.34,891.85,1488.26,900.4,1478.26,901.38z"/>
			<linearGradient id="SVGID_60_" gradientUnits="userSpaceOnUse" x1="1526.5457" y1="897.0126" x2="1593.3043" y2="682.9922">
				<stop  offset="3.597000e-03" style="stop-color:#26274F"/>
				<stop  offset="1" style="stop-color:#454C8D"/>
			</linearGradient>
			<path class="st72" d="M1587.55,890.62l-44.76,10.25c-9.84,0.97-26.79-10.93-26.79-20.46V704.52c0-9.53,8-17.75,17.84-18.36
				l53.7-3.32c9.63-0.59,27.37,7.07,27.37,16.45l-9.97,172.62C1604.95,881.3,1597.17,889.67,1587.55,890.62z"/>
			<linearGradient id="SVGID_61_" gradientUnits="userSpaceOnUse" x1="1617.7668" y1="884.1664" x2="1727.9049" y2="531.0771">
				<stop  offset="3.597000e-03" style="stop-color:#26274F"/>
				<stop  offset="1" style="stop-color:#454C8D"/>
			</linearGradient>
			<path class="st73" d="M1722.72,620.36L1682.9,519c-0.85-1.74-14.11-6.75-15.8-6.71c-1.73,0.03-3.48,0.98-4.35,2.82l-52.53,111.11
				c-0.95,2.02-0.4,4.14,1.02,5.4c0.85,0.76,12.63,5.35,12.63,5.35v242.4c0,4.24,13.04,12.09,17.34,11.66l60.74-11.68
				c4.19-0.41,7.58-4.13,7.58-8.3V627.7l8.98-0.48C1721.94,627.04,1724.19,623.37,1722.72,620.36z"/>
		</g>
		<g>
			<linearGradient id="SVGID_62_" gradientUnits="userSpaceOnUse" x1="1440.0146" y1="462.7979" x2="1074.0186" y2="1225.4709">
				<stop  offset="3.597120e-03" style="stop-color:#D191C0"/>
				<stop  offset="1" style="stop-color:#8172B4"/>
			</linearGradient>
			<path class="st74" d="M1258.61,929.12l-60.39,5.94c-11.07,1.09-20.08-6.22-20.08-16.33v-19.34c0-10.11,9.01-19.11,20.08-20.1
				l60.39-5.39c10.82-0.97,19.56,6.32,19.56,16.26v19.02C1278.16,919.13,1269.42,928.05,1258.61,929.12z"/>
			<linearGradient id="SVGID_63_" gradientUnits="userSpaceOnUse" x1="1526.8802" y1="504.4837" x2="1160.8842" y2="1267.1567">
				<stop  offset="3.597120e-03" style="stop-color:#D191C0"/>
				<stop  offset="1" style="stop-color:#8172B4"/>
			</linearGradient>
			<path class="st75" d="M1376.74,917.49l-58.03,5.71c-10.64,1.05-19.29-6.13-19.29-16.04v-48.49c0-9.91,8.65-18.67,19.29-19.57
				l58.03-4.89c10.4-0.88,18.8,6.32,18.8,16.07v47.71C1395.54,907.73,1387.14,916.46,1376.74,917.49z"/>
			<linearGradient id="SVGID_64_" gradientUnits="userSpaceOnUse" x1="1603.184" y1="541.0994" x2="1237.1879" y2="1303.7722">
				<stop  offset="3.597120e-03" style="stop-color:#D191C0"/>
				<stop  offset="1" style="stop-color:#8172B4"/>
			</linearGradient>
			<path class="st76" d="M1490.32,906.31l-55.8,5.49c-10.23,1.01-18.55-6.05-18.55-15.77V782.6c0-9.72,8.32-18.2,18.55-18.95
				l55.8-4.08c10-0.73,18.08,6.43,18.08,15.99v111.64C1508.4,896.77,1500.32,905.32,1490.32,906.31z"/>
			<linearGradient id="SVGID_65_" gradientUnits="userSpaceOnUse" x1="1676.5916" y1="576.3274" x2="1310.5959" y2="1338.999">
				<stop  offset="3.597120e-03" style="stop-color:#D191C0"/>
				<stop  offset="1" style="stop-color:#8172B4"/>
			</linearGradient>
			<path class="st77" d="M1599.6,895.55l-53.7,5.29c-9.84,0.97-17.84-5.97-17.84-15.5V709.45c0-9.53,8-17.75,17.84-18.36l53.7-3.32
				c9.63-0.59,17.4,6.53,17.4,15.91v173.16C1617.01,886.23,1609.23,894.6,1599.6,895.55z"/>
			<linearGradient id="SVGID_66_" gradientUnits="userSpaceOnUse" x1="1741.9691" y1="607.701" x2="1375.9738" y2="1370.3722">
				<stop  offset="3.597120e-03" style="stop-color:#D191C0"/>
				<stop  offset="1" style="stop-color:#8172B4"/>
			</linearGradient>
			<path class="st78" d="M1734.78,625.29l-51.41-105.54c-1.71-3.51-6.85-3.35-8.56,0.28l-52.53,111.11
				c-1.52,3.22,0.82,6.73,4.36,6.54l9.29-0.49V884.3c0,4.24,3.49,7.33,7.8,6.9l70.29-6.92c4.19-0.41,7.58-4.13,7.58-8.3V632.63
				l8.98-0.48C1733.99,631.97,1736.24,628.29,1734.78,625.29z"/>
		</g>
	</g>
	<g>
		
			<linearGradient id="SVGID_67_" gradientUnits="userSpaceOnUse" x1="3587.2717" y1="1442.2709" x2="3596.4204" y2="1450.4084" gradientTransform="matrix(0.9902 -0.14 0.14 0.9902 -2539.5193 73.1768)">
			<stop  offset="0" style="stop-color:#454C8D"/>
			<stop  offset="0.9964" style="stop-color:#26274F"/>
		</linearGradient>
		<path class="st79" d="M1217.09,1003.23c0.26-1.43,4.89-2.73,7.19-0.81c1.14,0.95,1.92,2.89,1.26,3.76
			c-0.24,0.32,0.74,0.88-0.2,0.89C1222.22,1007.11,1216.83,1004.66,1217.09,1003.23z"/>
		
			<linearGradient id="SVGID_68_" gradientUnits="userSpaceOnUse" x1="3195.3386" y1="1335.5826" x2="3195.3386" y2="1319.6448" gradientTransform="matrix(0.9988 0.0498 -0.0498 0.9988 -1900.8553 -487.2642)">
			<stop  offset="0" style="stop-color:#FFC546"/>
			<stop  offset="0.9964" style="stop-color:#F36F56"/>
		</linearGradient>
		<path class="st80" d="M1222.15,1003.24l4.8,0.24c-1.66-3.03,0.34-11.26,0.34-11.26l-5.19,0.15c0,0,0.13,2.39,0.44,5.94
			C1222.66,999.53,1222.46,1001.36,1222.15,1003.24z"/>
		
			<linearGradient id="SVGID_69_" gradientUnits="userSpaceOnUse" x1="3588.1917" y1="1441.2372" x2="3597.3401" y2="1449.3748" gradientTransform="matrix(0.9902 -0.14 0.14 0.9902 -2539.5193 73.1768)">
			<stop  offset="0" style="stop-color:#454C8D"/>
			<stop  offset="0.9964" style="stop-color:#26274F"/>
		</linearGradient>
		<path class="st81" d="M1221.52,1003.17c0,0,5.73-1.32,6.35-0.18c0.62,1.14,1.1,4.18-2.54,4.09
			C1221.7,1006.97,1221.2,1004.13,1221.52,1003.17z"/>
		
			<linearGradient id="SVGID_70_" gradientUnits="userSpaceOnUse" x1="3763.3796" y1="1009.1784" x2="3772.5288" y2="1017.3164" gradientTransform="matrix(1 0 0 1 -2609.0793 0)">
			<stop  offset="0" style="stop-color:#454C8D"/>
			<stop  offset="0.9964" style="stop-color:#26274F"/>
		</linearGradient>
		<path class="st82" d="M1156.27,1013.64c0.46-1.38,5.23-2.02,7.23,0.2c0.99,1.1,1.5,3.13,0.73,3.9c-0.28,0.28,0.61,0.97-0.32,0.85
			C1160.81,1018.19,1155.81,1015.01,1156.27,1013.64z"/>
		
			<linearGradient id="SVGID_71_" gradientUnits="userSpaceOnUse" x1="3359.2419" y1="825.8553" x2="3359.2419" y2="809.9172" gradientTransform="matrix(0.9813 0.1926 -0.1926 0.9813 -1973.8721 -439.5729)">
			<stop  offset="0" style="stop-color:#FFC546"/>
			<stop  offset="0.9964" style="stop-color:#F36F56"/>
		</linearGradient>
		<path class="st83" d="M1161.9,1014.97l4.72,0.93c-1.21-3.23,1.95-11.09,1.95-11.09l-5.16-0.59c0,0-0.22,2.38-0.41,5.94
			C1162.93,1011.37,1162.47,1013.15,1161.9,1014.97z"/>
		
			<linearGradient id="SVGID_72_" gradientUnits="userSpaceOnUse" x1="3764.2996" y1="1008.1447" x2="3773.4482" y2="1016.2826" gradientTransform="matrix(1 0 0 1 -2609.0793 0)">
			<stop  offset="0" style="stop-color:#454C8D"/>
			<stop  offset="0.9964" style="stop-color:#26274F"/>
		</linearGradient>
		<path class="st84" d="M1160.67,1014.19c0,0,5.86-0.51,6.32,0.71c0.45,1.21,0.51,4.3-3.08,3.69
			C1160.31,1017.98,1160.21,1015.1,1160.67,1014.19z"/>
		<linearGradient id="SVGID_73_" gradientUnits="userSpaceOnUse" x1="1204.0347" y1="921.1149" x2="1241.8383" y2="921.1149">
			<stop  offset="0" style="stop-color:#321944"/>
			<stop  offset="1" style="stop-color:#8A3A77"/>
		</linearGradient>
		<path class="st85" d="M1204.03,848.81c1.29,21.98,3.09,44.84,5.51,68.5c2.81,27.41,6.22,53.59,10.05,78.48
			c4.72,1.62,9.08,0,9.08,0s5.52-9.03,9.73-33.05c2.7-15.41,2.89-15.21,2.92-17.9c0.15-13.56-4.6-17.48-5.51-29.6
			c-0.84-11.21,2.73-14.57,4.86-27.19c1.64-9.71,2.25-23.85-2.92-42.34C1226.51,846.75,1215.27,847.78,1204.03,848.81z"/>
		<linearGradient id="SVGID_74_" gradientUnits="userSpaceOnUse" x1="1190.4252" y1="872.1673" x2="1190.1011" y2="985.9523">
			<stop  offset="0" style="stop-color:#321944"/>
			<stop  offset="1" style="stop-color:#8A3A77"/>
		</linearGradient>
		<path class="st86" d="M1180.37,848.12c-6.46,21.76-12.72,48.79-16.21,80.2c-3.39,30.49-3.33,57.57-1.95,79.86
			c2.05,0.57,4.11,1.15,6.16,1.72c11.94-12.49,16.2-23.97,17.83-32.36c2.41-12.4-1.22-16.61,1.94-30.64
			c0.73-3.23,1.75-6.69,13.62-29.95c11.32-22.2,13.64-25.42,15.56-33.39c2.74-11.38,2.01-21.47,0.97-28.23
			C1205.66,852.94,1193.01,850.53,1180.37,848.12z"/>
		<g>
			<path class="st87" d="M1129.46,801.1l-20.26-47.46c-1.01-2.37,0.35-5.08,2.85-5.69l37.11-9.01c2.01-0.49,4.07,0.57,4.85,2.48
				l18.63,45.61c0.93,2.27-0.3,4.85-2.64,5.57l-35.48,10.86C1132.48,804.07,1130.3,803.06,1129.46,801.1z"/>
			<linearGradient id="SVGID_75_" gradientUnits="userSpaceOnUse" x1="1142.6311" y1="772.4878" x2="1124.6395" y2="736.9907">
				<stop  offset="0" style="stop-color:#F58F86"/>
				<stop  offset="1" style="stop-color:#ED72AC"/>
			</linearGradient>
			<path class="st88" d="M1130.38,798.81l-18.92-44.33c-0.95-2.21,0.32-4.75,2.66-5.32l34.66-8.42c1.87-0.46,3.8,0.53,4.53,2.31
				l17.41,42.6c0.87,2.12-0.28,4.53-2.47,5.2l-33.15,10.14C1133.2,801.59,1131.16,800.65,1130.38,798.81z"/>
		</g>
		<linearGradient id="SVGID_76_" gradientUnits="userSpaceOnUse" x1="1119.2651" y1="768.6977" x2="1113.6731" y2="794.2264">
			<stop  offset="0" style="stop-color:#FFC546"/>
			<stop  offset="0.9964" style="stop-color:#F36F56"/>
		</linearGradient>
		<path class="st89" d="M1118.7,785.78l-0.61-5.59l-3.22-6.14c-0.44-0.84-0.67-1.77-0.67-2.71v-6.1l3.89,9c0,0,2.55-2.31,3.53-2.8
			c0.97-0.49,0.85,1.46,0.12,2.19c-0.73,0.73,0.36,6.69-0.36,7.29l0.24,3.65L1118.7,785.78z"/>
		<linearGradient id="SVGID_77_" gradientUnits="userSpaceOnUse" x1="1169.7943" y1="766.5015" x2="1234.4669" y2="828.2565">
			<stop  offset="3.597120e-03" style="stop-color:#D191C0"/>
			<stop  offset="1" style="stop-color:#8172B4"/>
		</linearGradient>
		<path class="st90" d="M1149.57,750.16c3.03-7.4,9.52-11.65,12.89-13.86c7.97-5.22,13.07-4.27,31.36-7.05
			c24.38-3.71,27.3-7.23,35.5-4.38c10.76,3.74,16.39,13.51,18.96,17.99c12.99,22.57-2.2,34.05,1.7,79.02
			c1.59,18.37,5.68,34.32-4.13,43.76c-2.07,1.99-4.38,3.03-9,5.11c-18.32,8.24-34.75,6.82-44.74,5.84
			c-10.99-1.09-16.54-1.71-19.45-5.59c-4.65-6.2,0.14-14.08,0.97-27.72c0.6-9.79-1.63-17.55-6.08-33.07
			C1157.21,774.14,1143.78,764.34,1149.57,750.16z"/>
		<g>
			<g>
				
					<linearGradient id="SVGID_78_" gradientUnits="userSpaceOnUse" x1="4519.0225" y1="289.6358" x2="4559.3657" y2="340.3923" gradientTransform="matrix(0.9663 0.2576 -0.2576 0.9663 -3106.3105 -744.5572)">
					<stop  offset="0" style="stop-color:#FFC546"/>
					<stop  offset="0.9964" style="stop-color:#F36F56"/>
				</linearGradient>
				<path class="st91" d="M1190.39,715.95c-1.11-3.95,0.83-7.62,1.26-8.41c1.79-3.3,2.25-3.76,3.1-4.33l1.19-0.73
					c0,0,0.07-0.03,0.14-0.05c0.76-0.27,3.36-0.35,3.89-0.24c1.68,0.36,3.47,7.21,2.96,16.89c0.07,0.37,0.14,0.74,0.2,1.12
					c0.26,1.53,0.48,3.03,0.64,4.49c0.16,1.4,2.14,1.37,3.55,1.28c5.71-0.36,8.51,0.12,8.75,0.97c0.46,1.59-6.32,6.81-14.69,7.98
					c-11.23,0.08-20.37-1.11-19.38-2.88c0.44-0.78,9.14-3.06,11.58-5.31c2.24-2.06,2.06-4.19,2.24-5.72
					C1195.14,720.66,1191.2,718.86,1190.39,715.95z"/>
				<path class="st87" d="M1192.45,699.73c0.01,3,1.42,6.2,2.14,6.72c0.09,0.07,0.62,0.48,1.09,1.19c0.06,0.1,0.12,0.21,0.17,0.35
					c0.66,1.89-2.35,4.12-1.77,4.96c0.42,0.61,2.46-0.21,2.71,0.32c0.23,0.5-1.47,1.53-1.21,2.13c0.2,0.45,1.24,0.04,1.9,0.73
					c0.33,0.34,0.23,0.62,0.58,1.67c0.2,0.6,0.47,1.25,0.69,1.61c1.04,1.76,3.97,2.41,4.54,1.7c0.16-0.2,0.02-0.36,0.18-1.02
					c0,0,0.15-0.61,0.57-1.32c0.61-1.01,2.07-1.73,3.55-2.8c2.74-1.97,3.48-3.65,3.71-4.22c0.08-0.2,0.13-0.36,0.16-0.47
					c0.71-2.21,0.72-5.46-0.28-7.46c-1.67-3.35-5.42-1.76-8.5-5.07c-3.55-3.83-1.43-9.05-3.36-9.63
					C1197.21,688.49,1192.43,694.18,1192.45,699.73z"/>
				
					<linearGradient id="SVGID_79_" gradientUnits="userSpaceOnUse" x1="4520.9536" y1="287.0811" x2="4565.9966" y2="343.751" gradientTransform="matrix(0.9663 0.2576 -0.2576 0.9663 -3106.3105 -744.5572)">
					<stop  offset="0" style="stop-color:#FFC546"/>
					<stop  offset="0.9964" style="stop-color:#F36F56"/>
				</linearGradient>
				<path class="st92" d="M1195.16,712.25c0.74-1.01,2.03-0.06,2.03,1.25c0.01,1.31-1.26,2.67-2.49,2.41
					C1193.48,715.64,1194.17,713.61,1195.16,712.25z"/>
			</g>
			<path class="st87" d="M1195.76,710.06l-1.71,2.22c0,0-1.84,2.72-2.91,1.23c-0.88-1.22-1.1-1.19-1.16-1.14
				c-0.01,0.01-0.01,0.02-0.02,0.02c-0.02,0,0.13-0.61,0.26-1.13c-0.45,0.65-1.08,1.71-1.46,3.13c-0.37,1.38-0.76,2.86,0.02,4.28
				c0.05,0.08,0.9,1.6,2.51,1.96c0,0,0.63,0.14,3.3-0.32c0,0-2.91-2.11-2.96-2.62c-0.12-1.37,1.77-2.1,3.18-4.9
				C1195.35,711.71,1195.62,710.74,1195.76,710.06z"/>
		</g>
		<linearGradient id="SVGID_80_" gradientUnits="userSpaceOnUse" x1="1145.9192" y1="791.5045" x2="1210.5919" y2="853.2596">
			<stop  offset="3.597120e-03" style="stop-color:#D191C0"/>
			<stop  offset="1" style="stop-color:#8172B4"/>
		</linearGradient>
		<path class="st93" d="M1201.6,863.71c-3.23-6.44,4.69-14.99-0.49-24.8c-4.39-8.33-12.38-6.47-16.05-14.1
			c-4.43-9.22,5.21-16.12,4.86-30.15c-0.41-16.77-14.85-33.57-23.34-32.09c-5.5,0.95-6.2,9.15-10.07,18.13
			c3.42,7.5,7.42,16.9,11.04,29.53c4.45,15.52,6.68,23.28,6.08,33.07c-0.84,13.64-5.63,21.52-0.97,27.72
			c2.91,3.88,8.46,4.5,19.45,5.59c9.98,0.99,26.41,2.41,44.74-5.84c2.32-1.04,4.06-1.83,5.47-2.6
			C1213.7,872.46,1204.17,868.81,1201.6,863.71z"/>
		<linearGradient id="SVGID_81_" gradientUnits="userSpaceOnUse" x1="1155.5864" y1="781.3806" x2="1220.259" y2="843.1357">
			<stop  offset="3.597120e-03" style="stop-color:#D191C0"/>
			<stop  offset="1" style="stop-color:#8172B4"/>
		</linearGradient>
		<path class="st94" d="M1117.6,784.69c1.78-0.77,3.57-1.54,5.35-2.31c3.01,3.08,6.86,6.08,10.09,5.11
			c4.82-1.45,3.61-10.32,9.48-25.89c6.65-17.65,14.19-22.19,17.99-23.83c2.12-0.92,3.59-1.52,5.35-1.09
			c8.1,1.98,10.78,23.1,8.51,38.9c-1.28,8.9-3.79,26.36-18.11,34.65c-2.03,1.18-13.23,7.66-24.31,2.55
			C1122.48,808.41,1116.63,797.22,1117.6,784.69z"/>
	</g>
	<g>
		
			<linearGradient id="SVGID_82_" gradientUnits="userSpaceOnUse" x1="-1110.7911" y1="1147.5708" x2="-1125.1704" y2="1100.1582" gradientTransform="matrix(-0.9952 0.097 0.097 0.9952 -182.2762 27.8412)">
			<stop  offset="0" style="stop-color:#454C8D"/>
			<stop  offset="0.9964" style="stop-color:#26274F"/>
		</linearGradient>
		<path class="st95" d="M1046.21,1037.93c1.72,2.87,1.41,4.19,1.09,4.78c-0.93,1.75-3.64,0.4-10.3,1.76
			c-0.78,0.16-2.27,0.49-4.19,0.2c-1.64-0.25-3.61-0.94-3.57-1.38c0.02-0.16,0.3-0.25,0.4-0.28c1.83-0.55,13.22-5.12,13.22-5.12
			L1046.21,1037.93z"/>
		
			<linearGradient id="SVGID_83_" gradientUnits="userSpaceOnUse" x1="-1123.1875" y1="1138.339" x2="-1123.1875" y2="1062.1648" gradientTransform="matrix(-0.9952 0.097 0.097 0.9952 -182.2762 27.8412)">
			<stop  offset="0" style="stop-color:#FFC546"/>
			<stop  offset="0.9964" style="stop-color:#F36F56"/>
		</linearGradient>
		<path class="st96" d="M1046.56,1031.28l-0.48,6.77c0,0-2.7,2.27-3.66-0.13c-0.69-1.73-1.07-6.51-1.07-6.51L1046.56,1031.28z"/>
		
			<linearGradient id="SVGID_84_" gradientUnits="userSpaceOnUse" x1="-1095.1401" y1="1138.3384" x2="-1095.1401" y2="1062.1637" gradientTransform="matrix(-0.9952 0.097 0.097 0.9952 -182.2762 27.8412)">
			<stop  offset="0" style="stop-color:#FFC546"/>
			<stop  offset="0.9964" style="stop-color:#F36F56"/>
		</linearGradient>
		<polygon class="st97" points="1012.93,1037.42 1016.39,1044.89 1020.43,1043.89 1018.89,1036.84 		"/>
		
			<linearGradient id="SVGID_85_" gradientUnits="userSpaceOnUse" x1="-1089.8435" y1="1141.2179" x2="-1104.223" y2="1093.8042" gradientTransform="matrix(-0.9952 0.097 0.097 0.9952 -182.2762 27.8412)">
			<stop  offset="0" style="stop-color:#454C8D"/>
			<stop  offset="0.9964" style="stop-color:#26274F"/>
		</linearGradient>
		<path class="st98" d="M1018.02,1049.02c1.79-2.52,3.58-2.45,3.8-4.1c0.17-1.29-0.73-2.79-1.96-3.28c-1.72-0.69-3.61,0.77-4.04,1.1
			c-2.9,2.25-1.81,5.3-4.58,6.89c-0.56,0.32-1.46,0.69-2.35,1.68c-0.38,0.42-1.32,1.47-1.03,2.11c0.34,0.74,2.16,0.56,3.89,0.39
			c2.08-0.2,3.12-0.3,4.07-1.01C1017.13,1051.81,1016.64,1050.96,1018.02,1049.02z"/>
		
			<linearGradient id="SVGID_86_" gradientUnits="userSpaceOnUse" x1="-1129.7761" y1="973.9713" x2="-1136.7716" y2="1131.3706" gradientTransform="matrix(-0.9952 0.097 0.097 0.9952 -182.2762 27.8412)">
			<stop  offset="0" style="stop-color:#321944"/>
			<stop  offset="1" style="stop-color:#8A3A77"/>
		</linearGradient>
		<path class="st99" d="M1055.13,869.51c0.54,15.62-0.58,29.08-2.21,40.11c-1.75,11.87-3.07,13.98-3.34,22.14
			c-0.59,17.74,5.25,19.91,7.53,39.77c2.52,21.93-2.25,39.79-4.14,46.6c-1.65,5.96-3.46,10.8-4.84,14.17
			c-1.91,1.88-5.04,1.4-8.33,0.94c-2.43-19.89-5.09-38.58-7.53-58.46c-5.72-29.79-11.45-59.57-17.17-89.36
			C1028.44,880.11,1041.79,874.81,1055.13,869.51z"/>
		
			<linearGradient id="SVGID_87_" gradientUnits="userSpaceOnUse" x1="-1129.7761" y1="973.9713" x2="-1136.7716" y2="1131.3706" gradientTransform="matrix(-0.9952 0.097 0.097 0.9952 -182.2762 27.8412)">
			<stop  offset="0" style="stop-color:#321944"/>
			<stop  offset="1" style="stop-color:#8A3A77"/>
		</linearGradient>
		<path class="st100" d="M1039.8,1033.23c-2.43-19.89-5.09-38.58-7.53-58.46c-5.72-29.79-11.45-59.57-17.17-89.36
			c13.34-5.3,26.69-10.6,40.03-15.91c0.04,1.03,0.05,2.03,0.07,3.05c-18.08,17.78-21.01,31.16-20.27,40.11
			c0.9,10.86,7.18,15.88,7,31.72c-0.13,11.33-3.4,13.52-2.77,23.7c0.81,13.1,6.89,20.12,10.1,27.52c3.1,7.15,4.68,17.46,0.48,32.52
			c-0.58,1.56-1.13,2.96-1.62,4.17C1046.22,1034.18,1043.09,1033.69,1039.8,1033.23z"/>
		
			<linearGradient id="SVGID_88_" gradientUnits="userSpaceOnUse" x1="-1023.1305" y1="1040.9303" x2="-1151.3856" y2="1035.1003" gradientTransform="matrix(-0.9952 0.097 0.097 0.9952 -182.2762 27.8412)">
			<stop  offset="0" style="stop-color:#321944"/>
			<stop  offset="1" style="stop-color:#8A3A77"/>
		</linearGradient>
		<path class="st101" d="M1031.95,886.02c-8.97,17.53-13.7,31.18-16.21,39.59c-1.53,5.13-2.88,10.45-2.84,17.33
			c0.04,8.42,2.14,15.21,3.86,19.53c2.46,5.52,4.77,12,6.42,19.38c5.37,23.92,0.96,44.5-2.75,56.4c-2.37,1.05-4.73,2.09-7.1,3.14
			c-6.43-15-14.5-36.34-20.98-62.88c-3.54-14.49-6.27-25.86-7.19-40.46c-0.97-15.4-0.29-39.89,10.5-69.77
			C1007.76,874.19,1019.85,880.1,1031.95,886.02z"/>
		
			<linearGradient id="SVGID_89_" gradientUnits="userSpaceOnUse" x1="-1212.952" y1="1074.5365" x2="-1122.009" y2="880.2139" gradientTransform="matrix(-0.9952 0.097 0.097 0.9952 -182.2762 27.8412)">
			<stop  offset="0" style="stop-color:#F58F86"/>
			<stop  offset="1" style="stop-color:#ED72AC"/>
		</linearGradient>
		<path class="st102" d="M1018.09,753.07c-15.23,3.6-26.78,7.08-31.51,15.46c-5,8.86,4.18,14.72,7.73,33.26
			c5.43,28.38-10.35,40.08-3.84,68.59c2.2,9.61,5.96,16.91,8.51,21.23c5.23,3.75,13.48,8.8,24.43,11.88
			c15.95,4.49,23.45,0.84,44.53,0.74c34.47-0.17,40.23,9.48,55.37,2.39c15.3-7.16,25.62-24.6,21.85-31.54
			c-2.26-4.16-8.38-1.1-17.72-5.79c-12.04-6.05-10.66-15.42-20.57-22.77c-14.24-10.55-26.55,1.76-38.75-7.43
			c-12.33-9.3-15.24-33.58-11.16-48.4c2.66-9.68,2.09-19.99,3.9-29.86c0.15-0.82,0.23-2.12-0.36-3.55
			c-2.27-5.47-12.56-5.91-20.33-6.17C1028.31,750.72,1019.35,752.77,1018.09,753.07z"/>
		
			<linearGradient id="SVGID_90_" gradientUnits="userSpaceOnUse" x1="2022.7281" y1="1126.9886" x2="2093.7598" y2="1273.0537" gradientTransform="matrix(0.9633 -0.2686 0.2686 0.9633 -1279.2095 233.8571)">
			<stop  offset="0" style="stop-color:#F58F86"/>
			<stop  offset="1" style="stop-color:#ED72AC"/>
		</linearGradient>
		<path class="st103" d="M1120.84,895.89c-4.95-2.87-2.93-12.02-10.27-16.35c-6.81-4.02-11.55,2.08-21.37-0.27
			c-12.59-3.02-12.68-14.96-24.76-18.03c-8.69-2.2-10.92,3.39-23.19,4.39c-12.25,0.99-28.64-3.07-39.62-15.44
			c-4.67-5.26-7.45-11-9.1-16.36c-2.62,10.8-5.55,21.26-2.05,36.56c2.2,9.61,5.96,16.91,8.51,21.23c5.23,3.75,13.48,8.8,24.43,11.88
			c15.95,4.49,23.45,0.84,44.53,0.74c34.47-0.17,40.23,9.48,55.37,2.39c9.78-4.58,17.5-13.35,20.83-20.89
			C1131.18,896.45,1124.44,897.98,1120.84,895.89z"/>
		
			<linearGradient id="SVGID_91_" gradientUnits="userSpaceOnUse" x1="-1112.7393" y1="822.4409" x2="-1129.1447" y2="848.9791" gradientTransform="matrix(-0.9952 0.097 0.097 0.9952 -182.2762 27.8412)">
			<stop  offset="0" style="stop-color:#FFC546"/>
			<stop  offset="0.9964" style="stop-color:#F36F56"/>
		</linearGradient>
		<path class="st104" d="M1007.55,726.98c0,0-3.75,8.23-3.67,13.83c0.08,5.6,6.36,4.81,6.36,4.81l-0.02,3.54
			c-0.02,3.02-1.81,5.75-4.57,6.97l-2.43,1.07c0,0,16.46,2.47,24.94-4.34l-2.57-0.09c-3.64-0.13-6.69-2.81-7.28-6.4l-0.25-1.5
			C1018.06,744.85,1019.79,727.26,1007.55,726.98z"/>
		<g>
			
				<linearGradient id="SVGID_92_" gradientUnits="userSpaceOnUse" x1="-1051.6378" y1="863.5276" x2="-1084.7061" y2="917.0203" gradientTransform="matrix(-0.9952 0.097 0.097 0.9952 -182.2762 27.8412)">
				<stop  offset="0" style="stop-color:#454C8D"/>
				<stop  offset="0.9964" style="stop-color:#26274F"/>
			</linearGradient>
			<path class="st105" d="M989.13,817.24l-23.79-43.07c-0.29-0.53-0.9-0.81-1.49-0.68l-34.69,7.35c-0.93,0.2-1.38,1.24-0.9,2.06
				l27.68,46.38c0.33,0.56,1.01,0.81,1.63,0.6l30.57-10.32L989.13,817.24z"/>
			
				<linearGradient id="SVGID_93_" gradientUnits="userSpaceOnUse" x1="-1021.9436" y1="845.7266" x2="-1050.5052" y2="899.3524" gradientTransform="matrix(-0.9966 0.0833 0.0833 0.9966 -137.4775 28.5741)">
				<stop  offset="0" style="stop-color:#FFC546"/>
				<stop  offset="0.9964" style="stop-color:#F36F56"/>
			</linearGradient>
			<path class="st106" d="M983.16,812.29l-19.26-34.88c-0.24-0.43-0.73-0.66-1.21-0.55l-28.09,5.95c-0.75,0.16-1.12,1.01-0.73,1.67
				l22.41,37.55c0.27,0.45,0.82,0.65,1.32,0.49l24.75-8.36L983.16,812.29z"/>
			
				<linearGradient id="SVGID_94_" gradientUnits="userSpaceOnUse" x1="-1055.0157" y1="860.0963" x2="-1047.1455" y2="843.7728" gradientTransform="matrix(-0.9952 0.097 0.097 0.9952 -182.2762 27.8412)">
				<stop  offset="0" style="stop-color:#9681BC"/>
				<stop  offset="0.9964" style="stop-color:#6166AE"/>
			</linearGradient>
			<path class="st107" d="M958,777.68l-1.53-2.8c-0.21-0.39-0.65-0.59-1.09-0.51l-14.44,2.93c-0.67,0.14-1.01,0.89-0.68,1.48
				l1.7,3.04c0.22,0.39,0.67,0.59,1.1,0.49l14.27-3.18C957.99,779.01,958.32,778.27,958,777.68z"/>
			
				<linearGradient id="SVGID_95_" gradientUnits="userSpaceOnUse" x1="-1035.605" y1="845.2811" x2="-1008.6406" y2="845.2811" gradientTransform="matrix(-0.9966 0.0833 0.0833 0.9966 -137.4775 28.5741)">
				<stop  offset="0" style="stop-color:#454C8D"/>
				<stop  offset="0.9964" style="stop-color:#26274F"/>
			</linearGradient>
			<path class="st108" d="M938.92,789.14c0.02,0,0.04-0.01,0.07-0.01l25.43-5.45c0.31-0.07,0.52-0.38,0.45-0.69
				c-0.07-0.32-0.39-0.51-0.69-0.45l-25.43,5.45c-0.31,0.07-0.52,0.38-0.45,0.69C938.36,788.98,938.63,789.17,938.92,789.14z"/>
			
				<linearGradient id="SVGID_96_" gradientUnits="userSpaceOnUse" x1="-1036.7983" y1="847.7603" x2="-1009.9645" y2="847.7603" gradientTransform="matrix(-0.9966 0.0833 0.0833 0.9966 -137.4775 28.5741)">
				<stop  offset="0" style="stop-color:#454C8D"/>
				<stop  offset="0.9964" style="stop-color:#26274F"/>
			</linearGradient>
			<path class="st109" d="M940.46,791.63c0.02,0,0.05-0.01,0.07-0.01l25.28-5.69c0.31-0.07,0.51-0.38,0.44-0.7
				c-0.07-0.31-0.38-0.51-0.7-0.44l-25.28,5.68c-0.31,0.07-0.51,0.38-0.44,0.7C939.9,791.46,940.17,791.65,940.46,791.63z"/>
			
				<linearGradient id="SVGID_97_" gradientUnits="userSpaceOnUse" x1="-1038.042" y1="852.4706" x2="-1022.8792" y2="852.4706" gradientTransform="matrix(-0.9966 0.0833 0.0833 0.9966 -137.4775 28.5741)">
				<stop  offset="0" style="stop-color:#454C8D"/>
				<stop  offset="0.9964" style="stop-color:#26274F"/>
			</linearGradient>
			<path class="st110" d="M953.67,794.63c0.03,0,0.06-0.01,0.09-0.02l13.76-3.49c0.31-0.08,0.5-0.4,0.42-0.71
				c-0.08-0.31-0.4-0.5-0.71-0.42l-13.76,3.49c-0.31,0.08-0.5,0.4-0.42,0.71C953.12,794.48,953.39,794.66,953.67,794.63z"/>
		</g>
		
			<linearGradient id="SVGID_98_" gradientUnits="userSpaceOnUse" x1="-1044.642" y1="884.6673" x2="-1052.5764" y2="897.5025" gradientTransform="matrix(-0.9952 0.097 0.097 0.9952 -182.2762 27.8412)">
			<stop  offset="0" style="stop-color:#FFC546"/>
			<stop  offset="0.9964" style="stop-color:#F36F56"/>
		</linearGradient>
		<path class="st111" d="M949.16,817.92c0,0-6.04-3.41-6.93-6.09c-0.89-2.68-1.16-7.85-1.16-7.85l3.94,6.98c0,0,1.57-0.6,2.06-3.05
			c0.49-2.45,1.85-0.36,1.53,1.49C948.28,811.25,949.16,817.92,949.16,817.92z"/>
		
			<linearGradient id="SVGID_99_" gradientUnits="userSpaceOnUse" x1="-1172.1365" y1="1093.6302" x2="-1081.1963" y2="899.3136" gradientTransform="matrix(-0.9952 0.097 0.097 0.9952 -182.2762 27.8412)">
			<stop  offset="0" style="stop-color:#F58F86"/>
			<stop  offset="1" style="stop-color:#ED72AC"/>
		</linearGradient>
		<path class="st112" d="M989.09,765.6c-2.86,2.09-7.14,5.7-10.73,11.24c-10.2,15.77-4.43,31.17-13.42,37.54
			c-2.57,1.82-7.22,3.51-16.05,1.2l-3.14,2.02c0,0-2.31,20.76,22.55,19.45c24.86-1.31,34.65-33.17,34.65-33.17L989.09,765.6z"/>
		
			<linearGradient id="SVGID_100_" gradientUnits="userSpaceOnUse" x1="-1203.8491" y1="933.6033" x2="-1137.524" y2="791.8833" gradientTransform="matrix(-0.9952 0.097 0.097 0.9952 -182.2762 27.8412)">
			<stop  offset="0" style="stop-color:#454C8D"/>
			<stop  offset="0.9964" style="stop-color:#26274F"/>
		</linearGradient>
		<path class="st113" d="M1010.58,734.74c0.84-0.12,1.46-1.23,2.06-0.95c0.62,0.29,0.65,1.85,0.2,2.97
			c-0.37,0.92-1.04,1.47-1.42,1.73c0.7,0.86,1.62,2.2,2.07,4c1.01,3.99-0.93,7.37-1.71,9.32c-3.49,8.81,3.6,21.97,10.9,28.38
			c5.93,5.21,8.39,2.82,12.01,7.15c7.03,8.43-1.32,18.7,2.77,30.39c6.22,17.77,35.11,21.38,36.3,21.51
			c0.47,0.05,0.79,0.09,1.28,0.13c12.94,1.24,32.54,3.12,45.56-8.24c9.74-8.5,13.59-22.48,12.06-34.49
			c-0.4-3.16-2.11-15.14-12.53-24.36c-1.65-1.46-11.45-10.11-23.91-9.45c-6.6,0.35-7.79,2.76-12.93,1.63
			c-7.03-1.54-11.68-7.56-14.56-11.29c-5.3-6.87-3.42-8.52-7.13-11.83c-7.27-6.48-14.97-0.56-22.66-6.2
			c-7.58-5.56-3.74-13.98-11.02-18.75c-7.51-4.92-21.13-2.2-23.66,4.37C1002.09,726.42,1008.02,735.11,1010.58,734.74z"/>
	</g>
</g>
</svg>
